<svg width="40" height="40" viewBox="0 0 40 40" fill="none" xmlns="http://www.w3.org/2000/svg">
<path fill-rule="evenodd" clip-rule="evenodd" d="M4.28571 0C3.14907 0 2.05898 0.455597 1.25526 1.26657C0.451529 2.07753 0 3.17744 0 4.32432L0 21.6216C0 22.7685 0.451529 23.8684 1.25526 24.6794C2.05898 25.4903 3.14907 25.9459 4.28571 25.9459H35.7143C36.8509 25.9459 37.941 25.4903 38.7447 24.6794C39.5485 23.8684 40 22.7685 40 21.6216V4.32432C40 3.17744 39.5485 2.07753 38.7447 1.26657C37.941 0.455597 36.8509 0 35.7143 0L4.28571 0ZM21.7857 4.19171C21.7857 3.71384 21.5976 3.25555 21.2627 2.91765C20.9278 2.57974 20.4736 2.38991 20 2.38991C19.5264 2.38991 19.0722 2.57974 18.7373 2.91765C18.4024 3.25555 18.2143 3.71384 18.2143 4.19171V5.34486C17.1861 5.46644 16.2338 5.95181 15.5267 6.71477C14.8196 7.47773 14.4034 8.46888 14.352 9.51219C14.3006 10.5555 14.6173 11.5834 15.246 12.4134C15.8746 13.2433 16.7745 13.8216 17.7857 14.0454L21.2057 14.7978C21.4811 14.8506 21.7266 15.006 21.8934 15.2333C22.0602 15.4605 22.136 15.7428 22.1058 16.0239C22.0755 16.305 21.9413 16.5643 21.73 16.7501C21.5188 16.9359 21.2458 17.0345 20.9657 17.0263H19.0343C18.8032 17.0271 18.5776 16.9554 18.3887 16.8211C18.1999 16.6868 18.057 16.4966 17.98 16.2768C17.8112 15.8415 17.4813 15.4895 17.0601 15.295C16.6389 15.1005 16.1593 15.0788 15.7225 15.2344C15.2857 15.3901 14.9259 15.7109 14.7192 16.1291C14.5124 16.5474 14.4748 17.0303 14.6143 17.476C15.1686 19.0616 16.5371 20.258 18.2143 20.5578V21.7542C18.2143 22.2321 18.4024 22.6904 18.7373 23.0283C19.0722 23.3662 19.5264 23.556 20 23.556C20.4736 23.556 20.9278 23.3662 21.2627 23.0283C21.5976 22.6904 21.7857 22.2321 21.7857 21.7542V20.555C22.8547 20.3638 23.8248 19.8043 24.5305 18.972C25.2362 18.1396 25.6337 17.0859 25.6553 15.9907C25.6769 14.8956 25.3211 13.8268 24.6488 12.9668C23.9764 12.1067 23.0292 11.5088 21.9686 11.275L18.5486 10.5225C18.3537 10.4813 18.1809 10.3684 18.0639 10.2058C17.9469 10.0432 17.8939 9.84256 17.9152 9.64279C17.9366 9.44301 18.0308 9.25838 18.1795 9.12474C18.3282 8.9911 18.5209 8.918 18.72 8.91964H20.9657C21.1968 8.91886 21.4224 8.99058 21.6113 9.12487C21.8001 9.25916 21.943 9.44938 22.02 9.66919C22.0921 9.89967 22.2095 10.1132 22.3651 10.2969C22.5207 10.4807 22.7114 10.631 22.9257 10.7389C23.1401 10.8468 23.3738 10.9101 23.6128 10.925C23.8519 10.9398 24.0916 10.906 24.3174 10.8255C24.5433 10.7451 24.7508 10.6195 24.9276 10.4565C25.1044 10.2934 25.2469 10.0961 25.3466 9.87629C25.4463 9.6565 25.5011 9.41872 25.5078 9.17711C25.5145 8.9355 25.473 8.69499 25.3857 8.46991C25.1097 7.68069 24.631 6.97955 23.9985 6.43811C23.366 5.89666 22.6024 5.53432 21.7857 5.38811V4.19171ZM7.85714 10.8108C8.42546 10.8108 8.97051 11.0386 9.37237 11.4441C9.77424 11.8496 10 12.3995 10 12.973C10 13.5464 9.77424 14.0964 9.37237 14.5019C8.97051 14.9073 8.42546 15.1351 7.85714 15.1351C7.28882 15.1351 6.74378 14.9073 6.34191 14.5019C5.94005 14.0964 5.71429 13.5464 5.71429 12.973C5.71429 12.3995 5.94005 11.8496 6.34191 11.4441C6.74378 11.0386 7.28882 10.8108 7.85714 10.8108ZM32.1429 10.8108C32.7112 10.8108 33.2562 11.0386 33.6581 11.4441C34.0599 11.8496 34.2857 12.3995 34.2857 12.973C34.2857 13.5464 34.0599 14.0964 33.6581 14.5019C33.2562 14.9073 32.7112 15.1351 32.1429 15.1351C31.5745 15.1351 31.0295 14.9073 30.6276 14.5019C30.2258 14.0964 30 13.5464 30 12.973C30 12.3995 30.2258 11.8496 30.6276 11.4441C31.0295 11.0386 31.5745 10.8108 32.1429 10.8108ZM12.8571 28.4685C13.8429 28.4685 14.6429 29.2757 14.6429 30.2703V36.036C14.6429 36.5139 14.4547 36.9722 14.1198 37.3101C13.7849 37.648 13.3307 37.8378 12.8571 37.8378C12.3835 37.8378 11.9293 37.648 11.5945 37.3101C11.2596 36.9722 11.0714 36.5139 11.0714 36.036V30.2703C11.0714 29.2757 11.8714 28.4685 12.8571 28.4685ZM28.9286 30.2703C28.9286 30.0337 28.8824 29.7994 28.7926 29.5808C28.7029 29.3621 28.5714 29.1635 28.4056 28.9962C28.2397 28.8289 28.0429 28.6962 27.8262 28.6056C27.6096 28.5151 27.3774 28.4685 27.1429 28.4685C26.9084 28.4685 26.6761 28.5151 26.4595 28.6056C26.2428 28.6962 26.046 28.8289 25.8802 28.9962C25.7143 29.1635 25.5828 29.3621 25.4931 29.5808C25.4033 29.7994 25.3571 30.0337 25.3571 30.2703V36.036C25.3571 36.2726 25.4033 36.507 25.4931 36.7256C25.5828 36.9442 25.7143 37.1428 25.8802 37.3101C26.046 37.4774 26.2428 37.6101 26.4595 37.7007C26.6761 37.7912 26.9084 37.8378 27.1429 37.8378C27.3774 37.8378 27.6096 37.7912 27.8262 37.7007C28.0429 37.6101 28.2397 37.4774 28.4056 37.3101C28.5714 37.1428 28.7029 36.9442 28.7926 36.7256C28.8824 36.507 28.9286 36.2726 28.9286 36.036V30.2703ZM21.7857 32.4324C21.7857 31.9546 21.5976 31.4963 21.2627 31.1584C20.9278 30.8205 20.4736 30.6306 20 30.6306C19.5264 30.6306 19.0722 30.8205 18.7373 31.1584C18.4024 31.4963 18.2143 31.9546 18.2143 32.4324V38.1982C18.2143 38.6761 18.4024 39.1344 18.7373 39.4723C19.0722 39.8102 19.5264 40 20 40C20.4736 40 20.9278 39.8102 21.2627 39.4723C21.5976 39.1344 21.7857 38.6761 21.7857 38.1982V32.4324Z" fill="#393CEC"/>
</svg>
