<svg width="36" height="36" viewBox="0 0 36 36" fill="none" xmlns="http://www.w3.org/2000/svg">
<path fill-rule="evenodd" clip-rule="evenodd" d="M3.85714 0.000488281C2.83416 0.000488281 1.85309 0.410526 1.12973 1.1404C0.406376 1.87027 0 2.86019 0 3.89238L0 19.4599C0 20.4921 0.406376 21.4821 1.12973 22.2119C1.85309 22.9418 2.83416 23.3518 3.85714 23.3518H32.1429C33.1658 23.3518 34.1469 22.9418 34.8703 22.2119C35.5936 21.4821 36 20.4921 36 19.4599V3.89238C36 2.86019 35.5936 1.87027 34.8703 1.1404C34.1469 0.410526 33.1658 0.000488281 32.1429 0.000488281L3.85714 0.000488281ZM19.6071 3.77303C19.6071 3.34295 19.4378 2.93048 19.1364 2.62637C18.835 2.32226 18.4262 2.15141 18 2.15141C17.5738 2.15141 17.165 2.32226 16.8636 2.62637C16.5622 2.93048 16.3929 3.34295 16.3929 3.77303V4.81087C15.4674 4.92028 14.6104 5.35712 13.974 6.04378C13.3376 6.73044 12.963 7.62248 12.9168 8.56146C12.8705 9.50043 13.1556 10.4256 13.7214 11.1725C14.2872 11.9195 15.097 12.4399 16.0071 12.6414L19.0851 13.3185C19.3329 13.366 19.5539 13.5059 19.7041 13.7104C19.8542 13.9149 19.9224 14.169 19.8952 14.422C19.8679 14.675 19.7472 14.9084 19.557 15.0756C19.3669 15.2428 19.1213 15.3315 18.8691 15.3242H17.1309C16.9229 15.3249 16.7199 15.2603 16.5499 15.1395C16.3799 15.0186 16.2513 14.8474 16.182 14.6496C16.0301 14.2578 15.7332 13.941 15.3541 13.766C14.975 13.591 14.5433 13.5714 14.1502 13.7115C13.7571 13.8516 13.4333 14.1403 13.2472 14.5167C13.0612 14.8931 13.0273 15.3278 13.1529 15.7289C13.6517 17.1559 14.8834 18.2327 16.3929 18.5025V19.5793C16.3929 20.0094 16.5622 20.4218 16.8636 20.726C17.165 21.0301 17.5738 21.2009 18 21.2009C18.4262 21.2009 18.835 21.0301 19.1364 20.726C19.4378 20.4218 19.6071 20.0094 19.6071 19.5793V18.4999C20.5692 18.3279 21.4423 17.8244 22.0774 17.0753C22.7125 16.3261 23.0704 15.3778 23.0898 14.3922C23.1092 13.4065 22.789 12.4446 22.1839 11.6706C21.5788 10.8966 20.7262 10.3584 19.7717 10.1479L16.6937 9.47076C16.5183 9.43362 16.3628 9.33202 16.2575 9.18571C16.1522 9.03939 16.1045 8.8588 16.1237 8.679C16.143 8.4992 16.2277 8.33303 16.3616 8.21275C16.4954 8.09248 16.6688 8.02669 16.848 8.02816H18.8691C19.0771 8.02746 19.2801 8.09201 19.4501 8.21287C19.6201 8.33373 19.7487 8.50493 19.818 8.70276C19.8829 8.9102 19.9886 9.10233 20.1286 9.26773C20.2686 9.43312 20.4402 9.5684 20.6331 9.6655C20.8261 9.7626 21.0364 9.81955 21.2516 9.83294C21.4667 9.84634 21.6824 9.81592 21.8857 9.74348C22.089 9.67104 22.2757 9.55808 22.4349 9.4113C22.594 9.26453 22.7222 9.08696 22.8119 8.88915C22.9016 8.69134 22.951 8.47734 22.957 8.25989C22.9631 8.04244 22.9257 7.82598 22.8471 7.62341C22.5987 6.91311 22.1679 6.28208 21.5986 5.79478C21.0294 5.30748 20.3422 4.98138 19.6071 4.84979V3.77303ZM7.07143 9.73022C7.58292 9.73022 8.07346 9.93524 8.43513 10.3002C8.79681 10.6651 9 11.1601 9 11.6762C9 12.1923 8.79681 12.6872 8.43513 13.0522C8.07346 13.4171 7.58292 13.6221 7.07143 13.6221C6.55994 13.6221 6.0694 13.4171 5.70772 13.0522C5.34605 12.6872 5.14286 12.1923 5.14286 11.6762C5.14286 11.1601 5.34605 10.6651 5.70772 10.3002C6.0694 9.93524 6.55994 9.73022 7.07143 9.73022ZM28.9286 9.73022C29.4401 9.73022 29.9306 9.93524 30.2923 10.3002C30.654 10.6651 30.8571 11.1601 30.8571 11.6762C30.8571 12.1923 30.654 12.6872 30.2923 13.0522C29.9306 13.4171 29.4401 13.6221 28.9286 13.6221C28.4171 13.6221 27.9265 13.4171 27.5649 13.0522C27.2032 12.6872 27 12.1923 27 11.6762C27 11.1601 27.2032 10.6651 27.5649 10.3002C27.9265 9.93524 28.4171 9.73022 28.9286 9.73022ZM11.5714 25.6221C12.4586 25.6221 13.1786 26.3486 13.1786 27.2437V32.4329C13.1786 32.863 13.0092 33.2755 12.7079 33.5796C12.4065 33.8837 11.9977 34.0545 11.5714 34.0545C11.1452 34.0545 10.7364 33.8837 10.435 33.5796C10.1336 33.2755 9.96429 32.863 9.96429 32.4329V27.2437C9.96429 26.3486 10.6843 25.6221 11.5714 25.6221ZM26.0357 27.2437C26.0357 27.0308 25.9941 26.8199 25.9134 26.6232C25.8326 26.4264 25.7142 26.2477 25.565 26.0971C25.4158 25.9465 25.2386 25.827 25.0436 25.7455C24.8486 25.6641 24.6396 25.6221 24.4286 25.6221C24.2175 25.6221 24.0085 25.6641 23.8135 25.7455C23.6186 25.827 23.4414 25.9465 23.2921 26.0971C23.1429 26.2477 23.0245 26.4264 22.9438 26.6232C22.863 26.8199 22.8214 27.0308 22.8214 27.2437V32.4329C22.8214 32.6459 22.863 32.8567 22.9438 33.0535C23.0245 33.2502 23.1429 33.429 23.2921 33.5796C23.4414 33.7302 23.6186 33.8496 23.8135 33.9311C24.0085 34.0126 24.2175 34.0545 24.4286 34.0545C24.6396 34.0545 24.8486 34.0126 25.0436 33.9311C25.2386 33.8496 25.4158 33.7302 25.565 33.5796C25.7142 33.429 25.8326 33.2502 25.9134 33.0535C25.9941 32.8567 26.0357 32.6459 26.0357 32.4329V27.2437ZM19.6071 29.1897C19.6071 28.7596 19.4378 28.3471 19.1364 28.043C18.835 27.7389 18.4262 27.5681 18 27.5681C17.5738 27.5681 17.165 27.7389 16.8636 28.043C16.5622 28.3471 16.3929 28.7596 16.3929 29.1897V34.3789C16.3929 34.8089 16.5622 35.2214 16.8636 35.5255C17.165 35.8296 17.5738 36.0005 18 36.0005C18.4262 36.0005 18.835 35.8296 19.1364 35.5255C19.4378 35.2214 19.6071 34.8089 19.6071 34.3789V29.1897Z" fill="#111530"/>
</svg>
