<svg width="28" height="22" viewBox="0 0 28 22" fill="none" xmlns="http://www.w3.org/2000/svg">
<path d="M8.4 4.125C8.95695 4.125 9.4911 3.9077 9.88492 3.52091C10.2788 3.13411 10.5 2.60951 10.5 2.0625C10.5 1.51549 10.2788 0.990886 9.88492 0.604092C9.4911 0.217298 8.95695 0 8.4 0C7.84305 0 7.3089 0.217298 6.91508 0.604092C6.52125 0.990886 6.3 1.51549 6.3 2.0625C6.3 2.60951 6.52125 3.13411 6.91508 3.52091C7.3089 3.9077 7.84305 4.125 8.4 4.125ZM8.05 19.25V15.125H8.75V19.25H8.05ZM5.25 19.25H1.4C0.625625 19.25 0 19.8645 0 20.625C0 21.3855 0.625625 22 1.4 22H26.6C27.3744 22 28 21.3855 28 20.625C28 19.8645 27.3744 19.25 26.6 19.25H11.55V11.0387L12.8013 13.0797C13.1994 13.7285 14.0612 13.9391 14.7219 13.548C15.3825 13.157 15.5969 12.3105 15.1987 11.6617L12.6481 7.49375C11.8869 6.25195 10.5219 5.49141 9.0475 5.49141H7.74813C6.27375 5.49141 4.90875 6.25195 4.1475 7.49375L1.59687 11.6617C1.19875 12.3105 1.41313 13.157 2.07375 13.548C2.73438 13.9391 3.59625 13.7285 3.99437 13.0797L5.25 11.0387V19.25ZM26.1887 5.21641L22.6887 1.77891C22.1419 1.2418 21.2537 1.2418 20.7069 1.77891L17.2069 5.21641C16.66 5.75352 16.66 6.62578 17.2069 7.16289C17.7537 7.7 18.6419 7.7 19.1887 7.16289L20.3 6.07148V16.5C20.3 17.2605 20.9256 17.875 21.7 17.875C22.4744 17.875 23.1 17.2605 23.1 16.5V6.07148L24.2113 7.16289C24.7581 7.7 25.6462 7.7 26.1931 7.16289C26.74 6.62578 26.74 5.75352 26.1931 5.21641H26.1887Z" fill="#CADAEA"/>
</svg>
